<svg xmlns="http://www.w3.org/2000/svg" viewBox="0 0 96 96">
<ellipse cx="48" cy="80" rx="25" ry="8" fill="#000" opacity=".22"/>
<path d="M31 39c0-13 8-22 17-22s17 9 17 22v13H31z" fill="#c98f65"/>
<path d="M24 33c6-18 42-18 48 0-8-4-14-5-24-5s-16 1-24 5z" fill="#842d2d"/>
<path d="M35 18l13-9 13 9-13-2z" fill="#842d2d"/>
<rect x="31" y="49" width="34" height="31" rx="8" fill="#234f72"/>
<path d="M31 58h34v7H31z" fill="#d1a643"/>
<path d="M37 80l-7 11M59 80l7 11" stroke="#3a2418" stroke-width="8" stroke-linecap="round"/>
<circle cx="42" cy="40" r="2.4" fill="#1c1c1c"/><circle cx="55" cy="40" r="2.4" fill="#1c1c1c"/>
<path d="M44 47c4 2 7 2 10 0" stroke="#7b3f2d" stroke-width="2" fill="none"/>
<path d="M63 53l20-18" stroke="#e9eef2" stroke-width="5" stroke-linecap="round"/><path d="M61 55l6 6" stroke="#b48a35" stroke-width="5"/>
</svg>